# xmcd
#
# Track frame offsets:
#	150
#	14422
#	29957
#	50280
#	63080
#	76970
#	96095
#	113367
#	129550
#	143672
#	156640
#	170450
#	183067
#	198865
#
# Disc length: 3039
#
# Revision: 1
# Processed by: cddbd v1.5.1PL0 Copyright (c) Steve Scherf et al.
# Submitted via: VisiTrax 2.9.5.180 - For more info visit www.synapsa.com
# Normalized: r0:DSETVAR1
#
DISCID=b20bdd0e
DTITLE=Various Artist - Mr Music Country 4-02
DYEAR=2002
DGENRE=
TTITLE0=Randy Travis - Feet On The Rock
TTITLE1=Blue Diamond Shine - Strong Wine And Strong Women
TTITLE2=Rhonda Vincent - My Sweet Love Ain't Around
TTITLE3=Tracy Lawrence - Crawlin' Again
TTITLE4=Joni Harms - Stayin' Power
TTITLE5=Monty and The Pythons - The Boys Of '44
TTITLE6=Clay Walker - If You Ever Feel Like Lovin' Me Again
TTITLE7=Craig Morgan - When a Man Can't Get a Woman Off His Mind
TTITLE8=Erica Dawson - I Can Read Between The Lies
TTITLE9=Chad Brock - Livin' In Vegas
TTITLE10=Keith Whitley - Sad Songs And Waltzes
TTITLE11=Harley Cummings - Between a Rock And a Hard Place
TTITLE12=Marina Uppgren - I Keep Forgetting
TTITLE13=Brian Burns - Gallo Del Cielo
EXTD=
EXTT0=
EXTT1=
EXTT2=
EXTT3=
EXTT4=
EXTT5=
EXTT6=
EXTT7=
EXTT8=
EXTT9=
EXTT10=
EXTT11=
EXTT12=
EXTT13=
PLAYORDER=
